<svg xmlns="http://www.w3.org/2000/svg" version="1.1" xmlns:xlink="http://www.w3.org/1999/xlink" xmlns:svgjs="http://svgjs.dev/svgjs" width="1500" height="367" viewBox="0 0 1500 367"><g transform="matrix(1,0,0,1,-0.9090909090909918,0.6417895255915198)"><svg viewBox="0 0 396 97" data-background-color="#ffffff" preserveAspectRatio="xMidYMid meet" height="367" width="1500" xmlns="http://www.w3.org/2000/svg" xmlns:xlink="http://www.w3.org/1999/xlink"><g id="tight-bounds" transform="matrix(1,0,0,1,0.2400000000000091,-0.16962829422990922)"><svg viewBox="0 0 395.52 97.33925658845983" height="97.33925658845983" width="395.52"><g><svg viewBox="0 0 395.52 97.33925658845983" height="97.33925658845983" width="395.52"><g transform="matrix(1,0,0,1,0,58.54829256446096)"><svg viewBox="0 0 395.52 38.790964023998875" height="38.790964023998875" width="395.52"><g id="textblocktransform"><svg viewBox="0 0 395.52 38.790964023998875" height="38.790964023998875" width="395.52" id="textblock"><g><svg viewBox="0 0 395.52 20.921992423179457" height="20.921992423179457" width="395.52"><g transform="matrix(1,0,0,1,0,0)"><svg width="395.52" viewBox="1 -36.2 712.65 37.7" height="20.921992423179457" data-palette-color="#a61713"><path d="M10.9 0.05L6.75 0 2.45 0.2Q1 0.2 1-0.4L1-0.4Q1-1.1 1.75-1.35L1.75-1.35Q3.35-1.95 4.55-4.03 5.75-6.1 10.58-16.57 15.4-27.05 19.15-35.05L19.15-35.05Q19.5-35.8 19.78-36 20.05-36.2 20.58-36.2 21.1-36.2 21.25-36 21.4-35.8 21.8-34.65 22.2-33.5 22.43-32.9 22.65-32.3 23.15-30.95 23.65-29.6 24.75-26.9 25.85-24.2 29.78-15.08 33.7-5.95 34.3-4.73 34.9-3.5 35.95-2.63 37-1.75 37.77-1.68 38.55-1.6 39.08-1.43 39.6-1.25 39.6-0.65L39.6-0.65Q39.6 0.1 38.25 0.1L38.25 0.1 33.75-0.2 29.1 0Q27.55 0 27.13-0.13 26.7-0.25 26.7-0.65 26.7-1.05 27.1-1.28 27.5-1.5 27.95-1.58 28.4-1.65 28.8-2.02 29.2-2.4 29.2-3.28 29.2-4.15 27.95-7.55 26.7-10.95 25.85-12.55L25.85-12.55Q25.4-13.4 23.8-13.4L23.8-13.4 17.75-13.3 15.1-13.3Q12.85-13.3 12.28-13.05 11.7-12.8 11.33-12 10.95-11.2 10.25-9.78 9.55-8.35 9.3-7.8 9.05-7.25 8.7-6.4L8.7-6.4Q8.05-4.9 8.05-3.9 8.05-2.9 8.63-2.3 9.2-1.7 9.9-1.6L9.9-1.6Q11.75-1.45 11.75-0.65L11.75-0.65Q11.75-0.3 11.6-0.13 11.45 0.05 10.9 0.05L10.9 0.05ZM18.8-28.5Q18.35-28.5 15.95-22.98 13.55-17.45 13.55-16.85 13.55-16.25 14-16.1 14.45-15.95 16.1-15.95L16.1-15.95 17.65-15.95 22.4-16Q24.35-16 24.35-16.73 24.35-17.45 21.9-22.98 19.45-28.5 18.8-28.5L18.8-28.5ZM46.4-11.55L46.4-17.75 46.55-26.4Q46.55-27.75 46.45-30.95L46.45-30.95Q46.4-32.4 45.2-33.2 44-34 42.4-34.05L42.4-34.05Q41.6-34.05 41.6-34.95L41.6-34.95Q41.6-35.65 43-35.65L43-35.65 44.35-35.55 56.55-35.3 66.55-35.5Q67.5-35.5 67.5-34.35L67.5-34.35Q67.5-34.05 67.2-32.38 66.9-30.7 66.9-29.75L66.9-29.75Q66.9-28.15 66.12-28.15 65.35-28.15 65.35-29.35 65.35-30.55 64.5-31.65 63.65-32.75 62.4-32.8L62.4-32.8Q57.9-33.15 55.5-33.15L55.5-33.15 54.2-33.15Q51.6-33.15 51.2-32.8L51.2-32.8Q50.45-32.15 50.45-21.75L50.45-21.75Q50.45-19.25 51.4-19.2L51.4-19.2 56.3-19.2Q59.3-19.2 60.3-19.4L60.3-19.4Q62.9-19.9 63.25-22L63.25-22Q63.4-22.85 63.9-22.85 64.4-22.85 64.5-22.7 64.6-22.55 64.6-22.05L64.6-22.05 64.2-16.8 64.35-13.75Q64.35-12.5 64-12.5L64-12.5Q63.25-12.5 62.9-13.7L62.9-13.7Q62.2-15.8 61.65-16.15L61.65-16.15Q60.6-16.85 58-16.85L58-16.85 54.4-16.85 52.8-16.9 52.45-16.9Q50.4-16.9 50.4-15.95L50.4-15.95 50.3-8.75 50.3-6.75Q50.3-3.15 51.52-2.78 52.75-2.4 53.65-2.4L53.65-2.4Q61.15-2.4 64.5-3.6L64.5-3.6Q67.45-4.7 68.1-5.9L68.1-5.9Q68.7-7.15 69.2-7.15L69.2-7.15Q69.8-7.15 69.8-6.3L69.8-6.3Q69.8-4.15 67.65-1.95 65.5 0.25 63.9 0.25L63.9 0.25Q60.3 0.25 55.77 0 51.25-0.25 50.15-0.25L50.15-0.25 43.35 0.2Q42.3 0.2 42.3-0.3L42.3-0.3 42.3-0.9Q42.3-1.2 42.8-1.3L42.8-1.3Q43.35-1.35 44.5-1.9 45.65-2.45 46.02-4.2 46.4-5.95 46.4-11.55L46.4-11.55ZM76.65-5.65L76.7-21.4 76.65-29.85Q76.65-31.7 75.9-32.68 75.15-33.65 74.22-33.77 73.3-33.9 72.55-34.1 71.8-34.3 71.8-34.8L71.8-34.8Q71.8-35.6 73.25-35.6L73.25-35.6 81.55-35.6 86.55-35.75Q91.05-35.75 94.25-33.48 97.45-31.2 97.45-27.35L97.45-27.35Q97.45-24.8 96.47-22.88 95.5-20.95 94.32-20.1 93.15-19.25 92.17-18.63 91.2-18 91.2-17.8L91.2-17.8Q91.2-17.2 95.4-11.33 99.6-5.45 101.15-3.8L101.15-3.8Q103.05-1.45 105.75-1.45L105.75-1.45Q106.45-1.45 106.45-0.85L106.45-0.85Q106.45-0.1 105.85 0.15 105.25 0.4 102.82 0.4 100.4 0.4 98.45-0.75L98.45-0.75Q95.75-2.3 89.5-12.75L89.5-12.75Q87.1-16.65 85.8-16.65L85.8-16.65 81.7-16.65Q81.1-16.65 80.97-16.15 80.85-15.65 80.85-13.2L80.85-13.2Q80.85-13.2 80.85-9.15L80.85-9.15 80.9-6.5Q80.9-6.5 80.9-6.05L80.9-6.05Q80.9-4 81.85-2.88 82.8-1.75 83.97-1.58 85.15-1.4 86.1-1.18 87.05-0.95 87.05-0.45L87.05-0.45Q87.05 0.35 86.15 0.35L86.15 0.35Q86.15 0.35 79 0L79 0 73.5 0.2Q72.45 0.2 72.45-0.6L72.45-0.6Q72.45-1.45 74.55-1.7L74.55-1.7Q75.35-1.8 76-2.8 76.65-3.8 76.65-5.65L76.65-5.65ZM80.85-28.2L80.85-26.8Q80.85-21.65 80.9-20.43 80.95-19.2 81.25-19L81.25-19Q82-18.55 83.4-18.55L83.4-18.55 85.35-18.55Q89.6-18.55 91.42-20.5 93.25-22.45 93.25-25.53 93.25-28.6 90.82-31.15 88.4-33.7 83.5-33.7L83.5-33.7Q81.65-33.7 81.25-32.73 80.85-31.75 80.85-28.2L80.85-28.2ZM117.59 0.05L113.44 0 109.14 0.2Q107.69 0.2 107.69-0.4L107.69-0.4Q107.69-1.1 108.44-1.35L108.44-1.35Q110.04-1.95 111.24-4.03 112.44-6.1 117.27-16.57 122.09-27.05 125.84-35.05L125.84-35.05Q126.19-35.8 126.47-36 126.74-36.2 127.27-36.2 127.79-36.2 127.94-36 128.09-35.8 128.49-34.65 128.89-33.5 129.12-32.9 129.34-32.3 129.84-30.95 130.34-29.6 131.44-26.9 132.54-24.2 136.47-15.08 140.39-5.95 140.99-4.73 141.59-3.5 142.64-2.63 143.69-1.75 144.47-1.68 145.24-1.6 145.77-1.43 146.29-1.25 146.29-0.65L146.29-0.65Q146.29 0.1 144.94 0.1L144.94 0.1 140.44-0.2 135.79 0Q134.24 0 133.82-0.13 133.39-0.25 133.39-0.65 133.39-1.05 133.79-1.28 134.19-1.5 134.64-1.58 135.09-1.65 135.49-2.02 135.89-2.4 135.89-3.28 135.89-4.15 134.64-7.55 133.39-10.95 132.54-12.55L132.54-12.55Q132.09-13.4 130.49-13.4L130.49-13.4 124.44-13.3 121.79-13.3Q119.54-13.3 118.97-13.05 118.39-12.8 118.02-12 117.64-11.2 116.94-9.78 116.24-8.35 115.99-7.8 115.74-7.25 115.39-6.4L115.39-6.4Q114.74-4.9 114.74-3.9 114.74-2.9 115.32-2.3 115.89-1.7 116.59-1.6L116.59-1.6Q118.44-1.45 118.44-0.65L118.44-0.65Q118.44-0.3 118.29-0.13 118.14 0.05 117.59 0.05L117.59 0.05ZM125.49-28.5Q125.04-28.5 122.64-22.98 120.24-17.45 120.24-16.85 120.24-16.25 120.69-16.1 121.14-15.95 122.79-15.95L122.79-15.95 124.34-15.95 129.09-16Q131.04-16 131.04-16.73 131.04-17.45 128.59-22.98 126.14-28.5 125.49-28.5L125.49-28.5ZM148.29-34.85L148.29-34.85Q148.29-35.2 148.69-35.45 149.09-35.7 149.59-35.7L149.59-35.7 150.94-35.7Q152.14-35.7 154.82-35.55 157.49-35.4 161.79-35.4L161.79-35.4 173.14-35.65Q173.99-35.65 173.99-34.45L173.99-34.45Q173.99-33.8 173.69-32.1 173.39-30.4 173.29-29.38 173.19-28.35 172.52-28.35 171.84-28.35 171.84-29.35L171.84-29.35Q171.84-32.65 169.54-32.8L169.54-32.8Q161.99-33.4 160.14-33.4 158.29-33.4 157.77-32.85 157.24-32.3 157.19-30.6L157.19-30.6 157.19-30.2Q157.04-27.5 157.04-21.85L157.04-21.85Q157.04-19.4 157.94-19.35L157.94-19.35 159.19-19.3 161.34-19.35 162.89-19.35Q165.89-19.35 166.87-19.53 167.84-19.7 168.47-20.13 169.09-20.55 169.34-20.95 169.59-21.35 169.69-21.9 169.79-22.45 169.94-22.7 170.09-22.95 170.54-22.95 170.99-22.95 171.09-22.8 171.19-22.65 171.19-22.23 171.19-21.8 170.97-20.4 170.74-19 170.74-18L170.74-18 171.09-13.9Q171.09-13.1 170.92-12.88 170.74-12.65 170.39-12.65L170.39-12.65Q169.54-12.65 169.34-13.9L169.34-13.9Q169.34-15 169.09-15.45L169.09-15.45Q168.59-16.15 168.07-16.38 167.54-16.6 165.74-16.8 163.94-17 163.39-17L163.39-17 159.04-17Q156.99-17 156.99-16.05L156.99-16.05 156.89-8.85 156.84-6.85Q156.84-5.85 157.04-4.85 157.24-3.85 158.22-2.75 159.19-1.65 160.77-1.65 162.34-1.65 162.34-0.75L162.34-0.75Q162.34-0.3 161.87-0.05 161.39 0.2 160.79 0.2L160.79 0.2 155.94-0.2 149.89 0.1Q148.89 0.1 148.89-0.45L148.89-0.45Q148.89-1.1 149.12-1.25 149.34-1.4 151.04-2L151.04-2Q152.34-2.45 152.64-4.7L152.64-4.7Q152.99-7.25 152.99-17.85L152.99-17.85 153.14-26.55 153.14-29.45Q153.14-32.75 150.79-33.85L150.79-33.85Q150.09-34.15 149.19-34.15 148.29-34.15 148.29-34.85ZM188.84-35.9Q189.49-35.9 192.91-35.7 196.34-35.5 206.39-35.5 216.44-35.5 218.54-35.8L218.54-35.8Q219.09-35.8 219.29-35.5 219.49-35.2 219.49-34.95L219.49-34.95 219.79-30.9Q219.79-29.65 219.64-29.33 219.49-29 218.99-29L218.99-29Q218.59-29 218.31-30.03 218.04-31.05 217.74-31.6L217.74-31.6Q216.99-32.9 213.39-32.9L213.39-32.9 206.89-32.9Q205.69-32.9 205.41-32.43 205.14-31.95 205.14-29.7L205.14-29.7 205.14-27.25 204.99-8.95 204.94-5.7Q204.94-3.55 205.61-2.9 206.29-2.25 207.09-1.93 207.89-1.6 208.44-1.55L208.44-1.55Q209.84-1.45 209.84-0.65L209.84-0.65Q209.84-0.1 209.59 0.05 209.34 0.2 208.64 0.2L208.64 0.2 203.09-0.2 197.99 0.15Q196.14 0.15 196.14-0.65L196.14-0.65Q196.14-1.15 196.44-1.33 196.74-1.5 197.61-1.63 198.49-1.75 198.74-1.8L198.74-1.8Q200.44-2.2 200.64-3.8L200.64-3.8Q201.14-8.2 201.14-22.7L201.14-22.7 201.09-31.65Q201.09-32.6 200.54-32.83 199.99-33.05 196.89-33.05 193.79-33.05 192.01-32.85 190.24-32.65 189.94-32.48 189.64-32.3 189.21-31.75 188.79-31.2 188.51-30.48 188.24-29.75 188.14-29.3L188.14-29.3Q187.99-28.15 187.19-28.15L187.19-28.15Q186.64-28.15 186.64-29L186.64-29Q186.64-31 186.89-32.63 187.14-34.25 187.16-34.5 187.19-34.75 187.21-34.83 187.24-34.9 187.26-35.08 187.29-35.25 187.34-35.33 187.39-35.4 187.46-35.52 187.54-35.65 187.64-35.7 187.74-35.75 187.89-35.8L187.89-35.8Q188.19-35.9 188.84-35.9ZM222.98-16.95L222.98-16.95Q222.98-25.35 228.03-30.73 233.08-36.1 242.33-36.1L242.33-36.1Q246.63-36.1 250.08-34.85 253.53-33.6 255.53-31.78 257.53-29.95 258.88-27.6L258.88-27.6Q261.23-23.5 261.23-19.6L261.23-19.6Q261.23-12.8 258.58-8.1L258.58-8.1Q253.53 0.8 241.63 0.8L241.63 0.8Q235.68 0.8 231.36-1.8 227.03-4.4 225.01-8.35 222.98-12.3 222.98-16.95ZM227.38-19.5L227.38-19.5Q227.38-15.05 229.73-10.4L229.73-10.4Q230.98-7.9 232.76-5.93 234.53-3.95 237.26-2.68 239.98-1.4 243.23-1.4L243.23-1.4Q246.93-1.4 250.53-3.55L250.53-3.55Q254.53-5.9 256.18-10.1L256.18-10.1Q257.13-12.35 257.13-15L257.13-15Q257.13-24.05 252.38-29.08 247.63-34.1 240.63-34.1L240.63-34.1Q235.13-34.1 231.26-30.4 227.38-26.7 227.38-19.5ZM269.13-20.7L269.13-21.55 269.23-28.75Q269.23-31.5 268.58-32.52 267.93-33.55 265.53-33.9L265.53-33.9Q264.43-34.05 264.43-34.85L264.43-34.85Q264.43-35.25 264.73-35.38 265.03-35.5 265.58-35.5L265.58-35.5 271.23-35.3 275.93-35.4Q276.98-35.4 276.98-34.7L276.98-34.7Q276.98-34.25 276.63-34.15 276.28-34.05 275.75-34 275.23-33.95 274.73-33.65L274.73-33.65Q273.48-32.95 273.48-29L273.48-29 273.48-27.6 273.43-16.8Q273.43-11.85 273.73-10.35 274.03-8.85 274.43-7.58 274.83-6.3 275.41-5.55 275.98-4.8 276.86-3.9 277.73-3 278.88-2.5L278.88-2.5Q281.58-1.4 285.03-1.4L285.03-1.4Q290.43-1.4 292.53-2.6L292.53-2.6Q293.43-3.1 294.61-4.17 295.78-5.25 296.43-6.8L296.43-6.8Q297.98-10.5 297.98-16.2L297.98-16.2 297.93-26.8Q297.93-28.55 297.86-29.55 297.78-30.55 297.36-31.75 296.93-32.95 296.28-33.4 295.63-33.85 294.83-33.98 294.03-34.1 293.53-34.18 293.03-34.25 293.03-34.6L293.03-34.6Q293.03-35.4 294.03-35.4L294.03-35.4 297.88-35.3 302.13-35.45Q303.18-35.45 303.18-34.8L303.18-34.8Q303.18-34.4 302.11-33.77 301.03-33.15 300.78-32.65L300.78-32.65Q300.23-31.6 300.23-29.35L300.23-29.35 300.28-26Q300.28-16.4 299.48-11.3 298.68-6.2 297.03-3.9L297.03-3.9Q293.68 0.95 285.18 0.95 276.68 0.95 273.18-2.25L273.18-2.25Q270.43-4.8 269.78-8.38 269.13-11.95 269.13-20.7L269.13-20.7ZM310.03-5.65L310.08-21.4 310.03-29.85Q310.03-31.7 309.28-32.68 308.53-33.65 307.6-33.77 306.68-33.9 305.93-34.1 305.18-34.3 305.18-34.8L305.18-34.8Q305.18-35.6 306.63-35.6L306.63-35.6 314.93-35.6 319.93-35.75Q324.43-35.75 327.63-33.48 330.83-31.2 330.83-27.35L330.83-27.35Q330.83-24.8 329.85-22.88 328.88-20.95 327.7-20.1 326.53-19.25 325.55-18.63 324.58-18 324.58-17.8L324.58-17.8Q324.58-17.2 328.78-11.33 332.98-5.45 334.53-3.8L334.53-3.8Q336.43-1.45 339.13-1.45L339.13-1.45Q339.83-1.45 339.83-0.85L339.83-0.85Q339.83-0.1 339.23 0.15 338.63 0.4 336.2 0.4 333.78 0.4 331.83-0.75L331.83-0.75Q329.13-2.3 322.88-12.75L322.88-12.75Q320.48-16.65 319.18-16.65L319.18-16.65 315.08-16.65Q314.48-16.65 314.35-16.15 314.23-15.65 314.23-13.2L314.23-13.2Q314.23-13.2 314.23-9.15L314.23-9.15 314.28-6.5Q314.28-6.5 314.28-6.05L314.28-6.05Q314.28-4 315.23-2.88 316.18-1.75 317.35-1.58 318.53-1.4 319.48-1.18 320.43-0.95 320.43-0.45L320.43-0.45Q320.43 0.35 319.53 0.35L319.53 0.35Q319.53 0.35 312.38 0L312.38 0 306.88 0.2Q305.83 0.2 305.83-0.6L305.83-0.6Q305.83-1.45 307.93-1.7L307.93-1.7Q308.73-1.8 309.38-2.8 310.03-3.8 310.03-5.65L310.03-5.65ZM314.23-28.2L314.23-26.8Q314.23-21.65 314.28-20.43 314.33-19.2 314.63-19L314.63-19Q315.38-18.55 316.78-18.55L316.78-18.55 318.73-18.55Q322.98-18.55 324.8-20.5 326.63-22.45 326.63-25.53 326.63-28.6 324.2-31.15 321.78-33.7 316.88-33.7L316.88-33.7Q315.03-33.7 314.63-32.73 314.23-31.75 314.23-28.2L314.23-28.2ZM361.62 0.05L357.47 0 353.17 0.2Q351.72 0.2 351.72-0.4L351.72-0.4Q351.72-1.1 352.47-1.35L352.47-1.35Q354.07-1.95 355.27-4.03 356.47-6.1 361.3-16.57 366.12-27.05 369.87-35.05L369.87-35.05Q370.22-35.8 370.5-36 370.77-36.2 371.3-36.2 371.82-36.2 371.97-36 372.12-35.8 372.52-34.65 372.92-33.5 373.15-32.9 373.37-32.3 373.87-30.95 374.37-29.6 375.47-26.9 376.57-24.2 380.5-15.08 384.42-5.95 385.02-4.73 385.62-3.5 386.67-2.63 387.72-1.75 388.5-1.68 389.27-1.6 389.8-1.43 390.32-1.25 390.32-0.65L390.32-0.65Q390.32 0.1 388.97 0.1L388.97 0.1 384.47-0.2 379.82 0Q378.27 0 377.85-0.13 377.42-0.25 377.42-0.65 377.42-1.05 377.82-1.28 378.22-1.5 378.67-1.58 379.12-1.65 379.52-2.02 379.92-2.4 379.92-3.28 379.92-4.15 378.67-7.55 377.42-10.95 376.57-12.55L376.57-12.55Q376.12-13.4 374.52-13.4L374.52-13.4 368.47-13.3 365.82-13.3Q363.57-13.3 363-13.05 362.42-12.8 362.05-12 361.67-11.2 360.97-9.78 360.27-8.35 360.02-7.8 359.77-7.25 359.42-6.4L359.42-6.4Q358.77-4.9 358.77-3.9 358.77-2.9 359.35-2.3 359.92-1.7 360.62-1.6L360.62-1.6Q362.47-1.45 362.47-0.65L362.47-0.65Q362.47-0.3 362.32-0.13 362.17 0.05 361.62 0.05L361.62 0.05ZM369.52-28.5Q369.07-28.5 366.67-22.98 364.27-17.45 364.27-16.85 364.27-16.25 364.72-16.1 365.17-15.95 366.82-15.95L366.82-15.95 368.37-15.95 373.12-16Q375.07-16 375.07-16.73 375.07-17.45 372.62-22.98 370.17-28.5 369.52-28.5L369.52-28.5ZM403.87 0.2L398.52 0.1 394.27 0.2Q393.17 0.2 393.17-0.6L393.17-0.6Q393.17-1.05 393.82-1.18 394.47-1.3 395.42-1.95 396.37-2.6 396.77-4.08 397.17-5.55 397.62-13.7 398.07-21.85 398.07-25.55 398.07-29.25 396.87-31.38 395.67-33.5 392.97-33.8L392.97-33.8Q392.32-33.85 392.32-34.55L392.32-34.55Q392.32-34.85 392.67-35.13 393.02-35.4 393.57-35.4L393.57-35.4 395.47-35.35 397.92-35.45Q398.37-35.45 398.97-35.18 399.57-34.9 399.67-34.68 399.77-34.45 400.22-33.93 400.67-33.4 401.42-32.55 402.17-31.7 402.77-30.9L402.77-30.9Q409.57-22.05 420.97-9.55L420.97-9.55Q421.27-9.2 421.69-8.75 422.12-8.3 422.3-8.08 422.47-7.85 422.67-7.65L422.67-7.65Q423.02-7.3 423.22-7.3L423.22-7.3Q423.72-7.3 423.72-10.4L423.72-10.4 423.72-16.25 423.62-26.5 423.62-26.85Q423.62-31.45 422.02-32.7L422.02-32.7Q421.42-33.15 421.02-33.27 420.62-33.4 419.87-33.55L419.87-33.55Q417.82-33.95 417.82-34.68 417.82-35.4 418.77-35.4L418.77-35.4 423.52-35.35Q423.52-35.35 428.02-35.45L428.02-35.45Q428.87-35.45 429.19-35.27 429.52-35.1 429.52-34.75 429.52-34.4 429.22-34.2L429.22-34.2Q428.82-33.95 427.77-33.6L427.77-33.6Q426.12-32.7 426.12-27.95L426.12-27.95 426.12-26.05 425.57-1.3 425.57-0.3Q425.57 0.85 424.87 0.85L424.87 0.85Q424.42 0.85 424.07 0.5L424.07 0.5Q407.47-18.75 404.25-22.38 401.02-26 400.67-26L400.67-26Q400.17-26 400.17-21.93 400.17-17.85 399.97-12.38 399.77-6.9 399.77-6.4L399.77-6.4Q399.77-4.15 400.55-2.98 401.32-1.8 402.22-1.65 403.12-1.5 403.89-1.33 404.67-1.15 404.67-0.63 404.67-0.1 404.5 0.05 404.32 0.2 403.87 0.2L403.87 0.2ZM436.92-18.45L436.92-18.45 436.87-31.15Q436.87-32 436.04-32.88 435.22-33.75 434.37-33.8 433.52-33.85 433.19-33.9 432.87-33.95 432.54-34.23 432.22-34.5 432.22-34.98 432.22-35.45 432.64-35.52 433.07-35.6 434.77-35.6L434.77-35.6 439.12-35.6 448.87-35.8Q456.12-35.8 462.12-31.7L462.12-31.7Q465.02-29.75 466.82-26.58 468.62-23.4 468.62-19.7 468.62-16 468.14-13.43 467.67-10.85 466.57-8.97 465.47-7.1 464.37-5.93 463.27-4.75 461.57-3.35 459.87-1.95 457.02-0.9 454.17 0.15 451.17 0.15L451.17 0.15 439.17-0.1Q437.42-0.1 435.92 0.03 434.42 0.15 434.17 0.15L434.17 0.15Q432.97 0.15 432.97-0.5L432.97-0.5Q432.97-0.9 433.14-1.07 433.32-1.25 433.89-1.4 434.47-1.55 434.72-1.65L434.72-1.65Q435.52-2 436.19-2.98 436.87-3.95 436.87-4.9L436.87-4.9Q436.87-4.9 436.92-18.45ZM441.22-27.3L441.12-17.7 441.07-7.05Q441.07-4.7 441.57-3.7L441.57-3.7Q441.82-3.25 442.52-3.05 443.22-2.85 444.12-2.6 445.02-2.35 446.19-2.02 447.37-1.7 449.27-1.7L449.27-1.7 450.27-1.7Q453.67-1.7 456.07-2.68 458.47-3.65 460.67-5.75L460.67-5.75Q464.37-9.3 464.37-17.25L464.37-17.25Q464.37-21.25 462.79-24.5 461.22-27.75 458.67-29.7L458.67-29.7Q453.42-33.65 447.22-33.65L447.22-33.65 445.22-33.65Q442.82-33.65 442.02-32.8L442.02-32.8Q441.62-32.4 441.54-32.1 441.47-31.8 441.34-30.93 441.22-30.05 441.22-29.4L441.22-29.4 441.22-27.3ZM484.66-35.9Q485.31-35.9 488.74-35.7 492.16-35.5 502.21-35.5 512.26-35.5 514.36-35.8L514.36-35.8Q514.91-35.8 515.11-35.5 515.31-35.2 515.31-34.95L515.31-34.95 515.61-30.9Q515.61-29.65 515.46-29.33 515.31-29 514.81-29L514.81-29Q514.41-29 514.14-30.03 513.86-31.05 513.56-31.6L513.56-31.6Q512.81-32.9 509.21-32.9L509.21-32.9 502.71-32.9Q501.51-32.9 501.24-32.43 500.96-31.95 500.96-29.7L500.96-29.7 500.96-27.25 500.81-8.95 500.76-5.7Q500.76-3.55 501.44-2.9 502.11-2.25 502.91-1.93 503.71-1.6 504.26-1.55L504.26-1.55Q505.66-1.45 505.66-0.65L505.66-0.65Q505.66-0.1 505.41 0.05 505.16 0.2 504.46 0.2L504.46 0.2 498.91-0.2 493.81 0.15Q491.96 0.15 491.96-0.65L491.96-0.65Q491.96-1.15 492.26-1.33 492.56-1.5 493.44-1.63 494.31-1.75 494.56-1.8L494.56-1.8Q496.26-2.2 496.46-3.8L496.46-3.8Q496.96-8.2 496.96-22.7L496.96-22.7 496.91-31.65Q496.91-32.6 496.36-32.83 495.81-33.05 492.71-33.05 489.61-33.05 487.84-32.85 486.06-32.65 485.76-32.48 485.46-32.3 485.04-31.75 484.61-31.2 484.34-30.48 484.06-29.75 483.96-29.3L483.96-29.3Q483.81-28.15 483.01-28.15L483.01-28.15Q482.46-28.15 482.46-29L482.46-29Q482.46-31 482.71-32.63 482.96-34.25 482.99-34.5 483.01-34.75 483.04-34.83 483.06-34.9 483.09-35.08 483.11-35.25 483.16-35.33 483.21-35.4 483.29-35.52 483.36-35.65 483.46-35.7 483.56-35.75 483.71-35.8L483.71-35.8Q484.01-35.9 484.66-35.9ZM522.46-5.65L522.51-21.4 522.46-29.85Q522.46-31.7 521.71-32.68 520.96-33.65 520.03-33.77 519.11-33.9 518.36-34.1 517.61-34.3 517.61-34.8L517.61-34.8Q517.61-35.6 519.06-35.6L519.06-35.6 527.36-35.6 532.36-35.75Q536.86-35.75 540.06-33.48 543.26-31.2 543.26-27.35L543.26-27.35Q543.26-24.8 542.28-22.88 541.31-20.95 540.13-20.1 538.96-19.25 537.99-18.63 537.01-18 537.01-17.8L537.01-17.8Q537.01-17.2 541.21-11.33 545.41-5.45 546.96-3.8L546.96-3.8Q548.86-1.45 551.56-1.45L551.56-1.45Q552.26-1.45 552.26-0.85L552.26-0.85Q552.26-0.1 551.66 0.15 551.06 0.4 548.63 0.4 546.21 0.4 544.26-0.75L544.26-0.75Q541.56-2.3 535.31-12.75L535.31-12.75Q532.91-16.65 531.61-16.65L531.61-16.65 527.51-16.65Q526.91-16.65 526.78-16.15 526.66-15.65 526.66-13.2L526.66-13.2Q526.66-13.2 526.66-9.15L526.66-9.15 526.71-6.5Q526.71-6.5 526.71-6.05L526.71-6.05Q526.71-4 527.66-2.88 528.61-1.75 529.78-1.58 530.96-1.4 531.91-1.18 532.86-0.95 532.86-0.45L532.86-0.45Q532.86 0.35 531.96 0.35L531.96 0.35Q531.96 0.35 524.81 0L524.81 0 519.31 0.2Q518.26 0.2 518.26-0.6L518.26-0.6Q518.26-1.45 520.36-1.7L520.36-1.7Q521.16-1.8 521.81-2.8 522.46-3.8 522.46-5.65L522.46-5.65ZM526.66-28.2L526.66-26.8Q526.66-21.65 526.71-20.43 526.76-19.2 527.06-19L527.06-19Q527.81-18.55 529.21-18.55L529.21-18.55 531.16-18.55Q535.41-18.55 537.24-20.5 539.06-22.45 539.06-25.53 539.06-28.6 536.63-31.15 534.21-33.7 529.31-33.7L529.31-33.7Q527.46-33.7 527.06-32.73 526.66-31.75 526.66-28.2L526.66-28.2ZM563.41 0.05L559.26 0 554.96 0.2Q553.51 0.2 553.51-0.4L553.51-0.4Q553.51-1.1 554.26-1.35L554.26-1.35Q555.86-1.95 557.06-4.03 558.26-6.1 563.08-16.57 567.91-27.05 571.66-35.05L571.66-35.05Q572.01-35.8 572.28-36 572.56-36.2 573.08-36.2 573.61-36.2 573.76-36 573.91-35.8 574.31-34.65 574.71-33.5 574.93-32.9 575.16-32.3 575.66-30.95 576.16-29.6 577.26-26.9 578.36-24.2 582.28-15.08 586.21-5.95 586.81-4.73 587.41-3.5 588.46-2.63 589.51-1.75 590.28-1.68 591.06-1.6 591.58-1.43 592.11-1.25 592.11-0.65L592.11-0.65Q592.11 0.1 590.76 0.1L590.76 0.1 586.26-0.2 581.61 0Q580.06 0 579.63-0.13 579.21-0.25 579.21-0.65 579.21-1.05 579.61-1.28 580.01-1.5 580.46-1.58 580.91-1.65 581.31-2.02 581.71-2.4 581.71-3.28 581.71-4.15 580.46-7.55 579.21-10.95 578.36-12.55L578.36-12.55Q577.91-13.4 576.31-13.4L576.31-13.4 570.26-13.3 567.61-13.3Q565.36-13.3 564.78-13.05 564.21-12.8 563.83-12 563.46-11.2 562.76-9.78 562.06-8.35 561.81-7.8 561.56-7.25 561.21-6.4L561.21-6.4Q560.56-4.9 560.56-3.9 560.56-2.9 561.13-2.3 561.71-1.7 562.41-1.6L562.41-1.6Q564.26-1.45 564.26-0.65L564.26-0.65Q564.26-0.3 564.11-0.13 563.96 0.05 563.41 0.05L563.41 0.05ZM571.31-28.5Q570.86-28.5 568.46-22.98 566.06-17.45 566.06-16.85 566.06-16.25 566.51-16.1 566.96-15.95 568.61-15.95L568.61-15.95 570.16-15.95 574.91-16Q576.86-16 576.86-16.73 576.86-17.45 574.41-22.98 571.96-28.5 571.31-28.5L571.31-28.5ZM616.85-35.5L620-35.45 624.45-35.55Q625.4-35.55 625.4-34.85L625.4-34.85Q625.4-34.3 624.3-33.8L624.3-33.8Q623.85-33.6 623.25-32.95 622.65-32.3 622.2-31.25L622.2-31.25 611.05-5.85Q609.85-3.15 609-1.07 608.15 1 608 1.25 607.85 1.5 607.6 1.5L607.6 1.5Q606.7 1.5 605.38-1.85 604.05-5.2 601.18-11.45 598.3-17.7 596.75-21.2 595.2-24.7 594.53-26.35 593.85-28 593.25-29.3L593.25-29.3Q592.35-31.45 591.6-32.27 590.85-33.1 589.93-33.5 589-33.9 588.45-33.9L588.45-33.9Q587.05-33.8 587.05-34.8L587.05-34.8Q587.05-35.5 588.45-35.5L588.45-35.5 593.95-35.3 597.2-35.4Q598.35-35.4 598.6-35.3 598.85-35.2 598.85-34.88 598.85-34.55 598.35-34.3L598.35-34.3Q596.8-33.5 596.8-32.68 596.8-31.85 596.98-31.18 597.15-30.5 597.75-29.1 598.35-27.7 598.98-26.3 599.6-24.9 601.03-21.78 602.45-18.65 603.8-15.6L603.8-15.6Q608-5.95 608.8-5.95L608.8-5.95Q609.05-5.95 611.68-12 614.3-18.05 616.85-24.65 619.4-31.25 619.4-32.25 619.4-33.25 618.83-33.68 618.25-34.1 617.6-34.2L617.6-34.2Q615.8-34.4 615.8-35L615.8-35Q615.8-35.35 615.98-35.43 616.15-35.5 616.85-35.5L616.85-35.5ZM632.2-11.55L632.2-17.75 632.35-26.4Q632.35-27.75 632.25-30.95L632.25-30.95Q632.2-32.4 631-33.2 629.8-34 628.2-34.05L628.2-34.05Q627.4-34.05 627.4-34.95L627.4-34.95Q627.4-35.65 628.8-35.65L628.8-35.65 630.15-35.55 642.35-35.3 652.35-35.5Q653.3-35.5 653.3-34.35L653.3-34.35Q653.3-34.05 653-32.38 652.7-30.7 652.7-29.75L652.7-29.75Q652.7-28.15 651.93-28.15 651.15-28.15 651.15-29.35 651.15-30.55 650.3-31.65 649.45-32.75 648.2-32.8L648.2-32.8Q643.7-33.15 641.3-33.15L641.3-33.15 640-33.15Q637.4-33.15 637-32.8L637-32.8Q636.25-32.15 636.25-21.75L636.25-21.75Q636.25-19.25 637.2-19.2L637.2-19.2 642.1-19.2Q645.1-19.2 646.1-19.4L646.1-19.4Q648.7-19.9 649.05-22L649.05-22Q649.2-22.85 649.7-22.85 650.2-22.85 650.3-22.7 650.4-22.55 650.4-22.05L650.4-22.05 650-16.8 650.15-13.75Q650.15-12.5 649.8-12.5L649.8-12.5Q649.05-12.5 648.7-13.7L648.7-13.7Q648-15.8 647.45-16.15L647.45-16.15Q646.4-16.85 643.8-16.85L643.8-16.85 640.2-16.85 638.6-16.9 638.25-16.9Q636.2-16.9 636.2-15.95L636.2-15.95 636.1-8.75 636.1-6.75Q636.1-3.15 637.33-2.78 638.55-2.4 639.45-2.4L639.45-2.4Q646.95-2.4 650.3-3.6L650.3-3.6Q653.25-4.7 653.9-5.9L653.9-5.9Q654.5-7.15 655-7.15L655-7.15Q655.6-7.15 655.6-6.3L655.6-6.3Q655.6-4.15 653.45-1.95 651.3 0.25 649.7 0.25L649.7 0.25Q646.1 0.25 641.58 0 637.05-0.25 635.95-0.25L635.95-0.25 629.15 0.2Q628.1 0.2 628.1-0.3L628.1-0.3 628.1-0.9Q628.1-1.2 628.6-1.3L628.6-1.3Q629.15-1.35 630.3-1.9 631.45-2.45 631.83-4.2 632.2-5.95 632.2-11.55L632.2-11.55ZM662.35-11.55L662.35-17.75 662.5-26.4Q662.5-27.75 662.4-30.95L662.4-30.95Q662.35-32.4 661.15-33.2 659.95-34 658.9-34.02 657.85-34.05 657.72-34.23 657.6-34.4 657.6-34.75L657.6-34.75Q657.6-35.65 658.95-35.65L658.95-35.65 660.3-35.55 664.65-35.35 669.9-35.55Q670.75-35.55 670.75-35.05L670.75-35.05Q670.75-34.35 670.15-34.13 669.55-33.9 668.82-33.83 668.1-33.75 667.42-32.73 666.75-31.7 666.65-29.7 666.55-27.7 666.4-18.75 666.25-9.8 666.25-8.75L666.25-8.75 666.25-6.75Q666.25-3.15 667.47-2.78 668.7-2.4 669.6-2.4L669.6-2.4Q677.1-2.4 680.4-3.6L680.4-3.6Q683.4-4.7 684-5.9L684-5.9Q684.65-7.15 685.15-7.15L685.15-7.15Q685.75-7.15 685.75-6.3L685.75-6.3Q685.75-4.15 683.6-1.95 681.45 0.25 679.85 0.25L679.85 0.25Q676.25 0.25 671.72 0 667.2-0.25 666.1-0.25L666.1-0.25 659.85 0.15Q658.4 0.15 658.4-0.45L658.4-0.45Q658.4-0.8 658.67-1.03 658.95-1.25 659.45-1.25 659.95-1.25 660.75-1.85 661.55-2.45 661.95-4.33 662.35-6.2 662.35-11.55L662.35-11.55ZM709.5-34.45L709.5-34.45 710.65-34.85Q711.3-34.85 711.4-34.45L711.4-34.45Q712.45-28.4 712.45-27.33 712.45-26.25 711.75-26.25L711.75-26.25Q711.3-26.25 710.87-27.33 710.45-28.4 709.87-29.3 709.3-30.2 709.05-30.45 708.8-30.7 707.75-31.65L707.75-31.65Q705.05-34.05 701.57-34.05 698.1-34.05 696-32.55 693.9-31.05 693.9-28.65 693.9-26.25 695.12-24.8 696.35-23.35 698.4-22.55 700.45-21.75 702.7-21.05L702.7-21.05Q708.75-19.15 711.65-16.1L711.65-16.1Q713.65-13.95 713.65-10.75L713.65-10.75Q713.65-5.5 710.3-2.43 706.95 0.65 702 0.65L702 0.65Q698.55 0.65 696.45 0.28 694.35-0.1 692.15-1.25L692.15-1.25Q691.5-1.65 690.6-5.15 689.7-8.65 689.7-9.53 689.7-10.4 690.37-10.4 691.05-10.4 691.2-9.9L691.2-9.9Q693.05-5.45 695.55-3.6L695.55-3.6Q698.25-1.55 702.07-1.55 705.9-1.55 708.17-3.53 710.45-5.5 710.45-8.7L710.45-8.7Q710.45-11.05 708.9-12.63 707.35-14.2 705.35-14.9L705.35-14.9Q697.9-17.4 695.25-18.95L695.25-18.95Q690.7-21.65 690.7-26.2 690.7-30.75 693.92-33.43 697.15-36.1 702.3-36.1L702.3-36.1Q704.2-36.1 706.82-35.27 709.45-34.45 709.5-34.45Z" opacity="1" transform="matrix(1,0,0,1,0,0)" fill="#a61713" class="wordmark-text-0" data-fill-palette-color="primary" id="text-0"></path></svg></g></svg></g><g transform="matrix(1,0,0,1,0,25.861172706473972)"><svg viewBox="0 0 395.52 12.929791317524904" height="12.929791317524904" width="395.52"><g transform="matrix(1,0,0,1,0,0)"><svg width="395.52" viewBox="0.5 -36.75 1154.77 37.75" height="12.929791317524904" data-palette-color="#a61713"><path d="M29.3-32.8L29.3-32.8 29.35-31.05Q29.35-27.4 28.8-24.35L28.8-24.35 26.1-24.35 25.45-29.35 17.25-29.65 17.25-3 22.95-2.35 22.9 0 7.45 0 7.15-1.6 12.6-3.3 12.6-29.65 4.4-29.35 3.75-24.35 1.05-24.35Q0.5-27.4 0.5-31.05L0.5-31.05 0.55-32.8Q6.75-32.6 14.95-32.6L14.95-32.6Q23.25-32.6 29.3-32.8ZM114.23-23.15L114.23-23.15Q114.43-19.45 113.33-15.05L113.33-15.05 110.63-15.05 110.08-20.55Q106.03-18.3 103.23-14.6L103.23-14.6 103.23-3.3Q106.88-3.05 108.38-2.4L108.38-2.4 108.08 0 95.38 0 95.13-1.65 98.78-3 98.78-20.6 95.03-20.3 94.43-22.65Q97.78-24.1 101.23-24.2L101.23-24.2 103.23-22.45 103.23-17.9 108.48-23.5Q109.93-24.1 111.13-24.1L111.13-24.1Q112.73-24.1 114.23-23.15ZM203.21-3.75L203.96-1.55 198.91 0.75Q198.16 0.65 197.01-0.43 195.86-1.5 195.36-2.7L195.36-2.7 189.71 0.7 188.51 0.75Q185.51 0.75 183.69-0.95 181.86-2.65 181.86-5.2L181.86-5.2Q181.86-8.6 185.36-10.55L185.36-10.55 195.11-10.8 195.11-15.95Q195.11-18.25 194.56-19.43 194.01-20.6 192.66-21.3L192.66-21.3Q189.61-21.2 187.01-20.45L187.01-20.45 186.61-15.25 183.96-15.05Q182.66-17.4 182.51-21.05L182.51-21.05Q184.71-22.3 188.41-23.48 192.11-24.65 193.66-24.65L193.66-24.65Q195.06-24.65 196.56-23.63 198.06-22.6 198.81-21.48 199.56-20.35 199.61-17.4L199.61-17.4 199.61-4.3Q199.61-3.3 200.91-3.3L200.91-3.3Q201.66-3.3 203.21-3.75L203.21-3.75ZM187.86-2.9L187.86-2.9Q190.81-2.8 195.11-4.75L195.11-4.75 195.11-8.2 192.61-8.35Q186.56-8.35 186.56-5.2L186.56-5.2Q186.56-3.7 187.86-2.9ZM294.5-23.4L294.8-21.6 291.65-20.4Q287.1-7 284.3-0.15L284.3-0.15Q282.95 0.3 281.1 0.3L281.1 0.3 278.5 0.1 271.35-20.8 268.55-20.95 268.6-23.4 278.6-23.4 278.9-21.6 276.4-20.65 280.15-8.65 280.85-3.3 282.05-3.3Q284.55-10.65 287.15-20.8L287.15-20.8 284.45-20.95 284.5-23.4 294.5-23.4ZM377.18-12.85L364.33-13.1Q364.33-8.15 366.6-5.6 368.88-3.05 372.53-3.05L372.53-3.05Q375.23-3.05 378.93-4.7L378.93-4.7 379.68-2.55 371.88 0.75Q366.38 0.75 363-2.63 359.63-6 359.63-11.3L359.63-11.3Q359.63-16.7 362.95-20.55 366.28-24.4 371.08-24.4L371.08-24.4Q373.68-24.4 375.75-23.25 377.83-22.1 378.95-20.1 380.08-18.1 380.03-15.65L380.03-15.65 377.18-12.85ZM368.58-21.35L368.58-21.35Q365.73-19.85 364.73-15.75L364.73-15.75 375.68-16.25Q375.18-18.65 373.2-20.1 371.23-21.55 368.58-21.35ZM456.06-35L456.06-3.2Q458.56-2.9 459.66-2.4L459.66-2.4 459.36 0 448.06 0 447.81-1.65Q449.01-2.25 451.61-3.05L451.61-3.05 451.61-33.15 447.86-32.85 447.26-35.2Q450.61-36.65 454.06-36.75L454.06-36.75 456.06-35ZM642.42-23.4L642.72-21.6 639.57-20.4 633.57-0.3Q631.92 0.3 629.62 0.3L629.62 0.3Q628.37 0.3 627.52 0.1L627.52 0.1 623.72-11 623.32-8.8 619.82-0.3Q618.37 0.25 616.17 0.25L616.17 0.25 614.02 0.1 607.62-20.8 604.82-20.95 604.87-23.4 614.87-23.4 615.17-21.6 612.47-20.55 615.97-8.55 617.12-2.95 617.52-2.95 622.17-15.45 619.97-21.9 624.37-23.05 629.12-8.55 630.07-2.95 630.42-2.95 635.32-20.75 632.22-20.95 632.27-23.4 642.42-23.4ZM715.11-28.65L715.11-28.65Q712.66-29.7 711.26-31.65L711.26-31.65Q712.56-34.35 714.31-35.45L714.31-35.45Q716.56-34.55 718.06-32.45L718.06-32.45Q717.26-30.15 715.11-28.65ZM717.11-22.45L717.11-3.2Q719.61-2.9 720.71-2.4L720.71-2.4 720.41 0 709.11 0 708.86-1.65Q710.06-2.25 712.66-3.05L712.66-3.05 712.66-20.6 708.91-20.3 708.31-22.65Q711.66-24.1 715.11-24.2L715.11-24.2 717.11-22.45ZM797.59-3.4L797.59-3.4Q799.04-3.4 802.19-4.55L802.19-4.55 803.04-2.25 796.54 0.75Q794.84 0.85 793.16-0.53 791.49-1.9 791.49-3.5L791.49-3.5 791.49-19.65 788.39-19.6 788.04-22Q789.64-22.7 791.59-23.15L791.59-23.15 793.59-29.45 795.94-29.45 795.94-23.4 802.94-23.4 803.14-21.95 800.79-19.55 795.94-19.55 795.94-6.1Q795.94-4.55 796.29-3.98 796.64-3.4 797.59-3.4ZM894.32-15.35L894.32-3.2Q896.82-2.9 897.92-2.4L897.92-2.4 897.62 0 887.27 0 887.02-1.65 889.87-2.75 889.87-14.8Q889.87-20.2 886.67-20.2L886.67-20.2Q883.87-20.2 879.07-16.6L879.07-16.6 879.07-3.15Q881.17-2.9 882.32-2.4L882.32-2.4 882.02 0 871.17 0 870.92-1.65 874.62-3 874.62-33.15 870.87-32.85 870.27-35.2Q873.62-36.65 877.07-36.75L877.07-36.75 879.07-35 879.07-19.3Q886.42-24.2 889.07-24.2L889.07-24.2Q890.52-23.95 891.99-22.73 893.47-21.5 893.89-20.2 894.32-18.9 894.32-15.35L894.32-15.35ZM1069.98-3.75L1070.73-1.55 1065.68 0.75Q1064.88 0.65 1063.71-0.5 1062.53-1.65 1062.08-2.95L1062.08-2.95Q1059.58-1.35 1056.78-0.3 1053.98 0.75 1052.43 0.75L1052.43 0.75Q1049.68 0.15 1048.03-2.5L1048.03-2.5Q1047.23-3.65 1047.18-7.05L1047.18-7.05 1047.18-20.6 1043.43-20.3 1042.83-22.65Q1046.18-24.1 1049.63-24.2L1049.63-24.2 1051.63-22.45 1051.63-7.4Q1051.78-3.1 1054.93-3.1L1054.93-3.1Q1057.68-3.1 1061.93-5.7L1061.93-5.7 1061.93-20.6 1058.18-20.3 1057.58-22.65Q1060.93-24.1 1064.38-24.2L1064.38-24.2 1066.38-22.45 1066.38-4.3Q1066.38-3.3 1067.68-3.3L1067.68-3.3Q1068.43-3.3 1069.98-3.75L1069.98-3.75ZM1142.72-18.5L1142.72-18.5Q1142.72-16.9 1144.02-15.95 1145.32-15 1148.02-13.8L1148.02-13.8 1150.97-12.45Q1155.27-10.2 1155.27-6.25L1155.27-6.25Q1155.27-3.05 1152.87-1.03 1150.47 1 1146.67 1L1146.67 1Q1142.52 1 1137.82-1.6L1137.82-1.6 1139.67-6Q1144.37-2.8 1149.57-2.1L1149.57-2.1Q1150.92-3.3 1150.92-5 1150.92-6.7 1149.67-7.75 1148.42-8.8 1144.74-10.43 1141.07-12.05 1139.79-13.58 1138.52-15.1 1138.52-17.25L1138.52-17.25Q1138.52-20.4 1141.19-22.4 1143.87-24.4 1148.02-24.4L1148.02-24.4Q1151.52-24.4 1154.42-22.9L1154.42-22.9Q1154.57-19.25 1153.57-16.45L1153.57-16.45 1150.87-16.45 1150.52-20.3Q1148.02-21.4 1145.27-21.4L1145.27-21.4 1144.32-21.35Q1142.72-20.35 1142.72-18.5Z" opacity="1" transform="matrix(1,0,0,1,0,0)" fill="#a61713" class="slogan-text-1" data-fill-palette-color="secondary" id="text-1"></path></svg></g></svg></g></svg></g></svg></g><g transform="matrix(1,0,0,1,162.90200068346616,0)"><svg viewBox="0 0 69.71599863306767 53.609112281166446" height="53.609112281166446" width="69.71599863306767"><g><svg xmlns:x="http://ns.adobe.com/Extensibility/1.0/" xmlns:i="http://ns.adobe.com/AdobeIllustrator/10.0/" xmlns:graph="http://ns.adobe.com/Graphs/1.0/" xmlns="http://www.w3.org/2000/svg" xmlns:xlink="http://www.w3.org/1999/xlink" version="1.1" x="8" y="0" viewBox="1.8876952999999994 1.9404286319834534 66.23776074849683 66.10595806801655" style="enable-background:new 0 0 70 70;" xml:space="preserve" height="53.609112281166446" width="53.71599863306767" class="icon-icon-0" data-fill-palette-color="accent" id="icon-0"><path d="M4.21 68.046h22.765c1.28 0 2.322-1.042 2.322-2.322V53.762 50.957c0-1.28-1.042-2.322-2.322-2.323h-5.82v-1.139c0-1.849-1.504-3.353-3.353-3.352h-4.419c-1.849 0-3.353 1.504-3.353 3.352v1.139H4.21c-1.28 0-2.322 1.042-2.322 2.323v2.805 11.962C1.888 67.004 2.93 68.046 4.21 68.046zM26.975 66.046H4.21c-0.178 0-0.322-0.145-0.322-0.322V57.49c0.711 0.475 1.564 0.755 2.482 0.754h18.444c0.918 0 1.771-0.279 2.483-0.754v8.234C27.297 65.902 27.152 66.046 26.975 66.046zM12.03 47.495c0-0.746 0.606-1.353 1.353-1.352h4.419c0.746 0 1.354 0.607 1.353 1.352v1.139h-7.125V47.495zM3.888 50.957c0-0.178 0.145-0.322 0.322-0.323h6.82 9.125 6.82c0.178 0 0.322 0.145 0.322 0.323v2.805c0 1.369-1.113 2.482-2.483 2.482H6.37c-1.369 0-2.482-1.114-2.482-2.482V50.957z" fill="#ff683c" data-fill-palette-color="accent"></path><path d="M49.852 11.376l-2.51-0.68c0.143-0.309 0.227-0.643 0.238-0.988 0.021-0.678-0.228-1.311-0.698-1.781L46.877 7.922c-0.813-0.814-2.082-0.933-3.089-0.289l-2.302 1.477-4.078-1.104c0.243-0.386 0.387-0.824 0.402-1.282 0.021-0.678-0.227-1.311-0.699-1.782 0 0 0 0 0 0V4.941c-0.819-0.817-2.093-0.934-3.1-0.281l-2.637 1.713-2.976-0.806c-0.35-0.093-0.716 0.004-0.97 0.258l-5.57 5.57c-0.229 0.228-0.332 0.552-0.279 0.87 0.053 0.318 0.255 0.591 0.544 0.734l17.926 8.834c-4.054 4.619-8.011 9.47-10.872 13.454l-4.788-0.79c-0.321-0.052-0.642 0.052-0.87 0.279l-1.871 1.87c-0.237 0.237-0.34 0.578-0.272 0.907 0.066 0.329 0.294 0.602 0.604 0.728l4.14 1.674c-0.035 0.062-0.081 0.134-0.114 0.194-0.216 0.39-0.147 0.875 0.168 1.191l2.552 2.551c0.192 0.192 0.448 0.293 0.707 0.293 0.165 0 0.332-0.041 0.483-0.124 0.063-0.035 0.136-0.082 0.2-0.118l1.68 4.153c0.125 0.311 0.398 0.538 0.727 0.605 0.066 0.014 0.133 0.02 0.2 0.02 0.263 0 0.518-0.104 0.707-0.293l1.87-1.87c0.229-0.228 0.332-0.552 0.279-0.87l-0.793-4.804c3.983-2.861 8.83-6.815 13.446-10.867l8.834 17.926c0.143 0.29 0.416 0.492 0.735 0.545C57.855 48.496 57.91 48.5 57.964 48.5c0.263 0 0.519-0.104 0.707-0.293l5.569-5.57c0.254-0.254 0.353-0.624 0.258-0.97l-0.806-2.976 1.713-2.637c0.653-1.007 0.537-2.282-0.282-3.1-0.471-0.471-1.103-0.722-1.781-0.698-0.459 0.014-0.897 0.158-1.283 0.401l-1.104-4.078 1.478-2.303c0.644-1.004 0.524-2.274-0.289-3.088l-0.005-0.005c-0.737-0.736-1.844-0.88-2.768-0.456l-0.681-2.514c8.75-8.912 11.219-14.046 8.214-17.052C63.899 0.157 58.765 2.625 49.852 11.376zM44.868 9.316c0.206-0.132 0.451-0.123 0.595 0.02l0.005 0.005c0.099 0.098 0.116 0.22 0.113 0.305-0.005 0.144-0.068 0.284-0.179 0.396l-0.101 0.101-1.211-0.328L44.868 9.316zM35.101 6.338c0.204-0.133 0.453-0.124 0.596 0.017 0 0 0 0 0 0.001 0.099 0.098 0.116 0.22 0.114 0.306-0.005 0.144-0.068 0.284-0.179 0.395l-0.369 0.369-1.297-0.352L35.101 6.338zM24.26 11.822l4.172-4.173 2.791 0.756c0.018 0.006 0.032 0.017 0.05 0.022l4.023 1.085c0.01 0.003 0.021 0.002 0.032 0.004l5.979 1.618c0.025 0.009 0.046 0.024 0.072 0.032l3.952 1.066c0.02 0.005 0.04 0.004 0.061 0.008l2.827 0.765c-2.127 2.159-4.452 4.65-6.796 7.275L24.26 11.822zM24.131 36.993l0.438-0.439 3.338 0.551c-0.262 0.387-0.501 0.755-0.734 1.118L24.131 36.993zM33.522 45.506l-0.439 0.439L31.847 42.889c0.364-0.233 0.733-0.474 1.122-0.736L33.522 45.506zM58.244 45.806l-8.459-17.164c2.625-2.344 5.116-4.669 7.275-6.795l0.765 2.824c0.004 0.021 0.003 0.042 0.008 0.063l1.066 3.953c0.007 0.027 0.023 0.049 0.033 0.074l1.616 5.97c0.003 0.013 0.002 0.025 0.005 0.038l1.085 4.023c0.005 0.02 0.018 0.036 0.024 0.055l0.754 2.786L58.244 45.806zM63.009 34.433c0.11-0.11 0.251-0.174 0.394-0.178 0.087-0.002 0.208 0.015 0.306 0.113 0 0 0 0 0.001 0.001 0.143 0.142 0.149 0.393 0.018 0.596l-0.737 1.134-0.351-1.297L63.009 34.433zM60.023 24.663c0.21-0.212 0.525-0.241 0.702-0.066l0.004 0.005c0.144 0.144 0.151 0.389 0.02 0.595L60.25 25.975l-0.328-1.211L60.023 24.663zM56.426 19.665c-7.63 7.63-20.249 18.394-26.826 22.272l-1.472-1.471c0.067-0.114 0.152-0.243 0.223-0.36 0.012-0.014 0.019-0.033 0.029-0.048 4.065-6.677 14.54-18.938 22.02-26.418C58.412 5.628 63.489 2.575 65.49 4.575 67.488 6.575 64.439 11.652 56.426 19.665z" fill="#ff683c" data-fill-palette-color="accent"></path></svg><g></g></g></svg></g><g><rect width="162.90200068346616" height="1.8867668682185041" y="50.722345412947945" x="232.61799931653383" fill="#ff683c" data-fill-palette-color="accent"></rect><rect width="162.90200068346616" height="1.8867668682185041" y="50.722345412947945" x="0" fill="#ff683c" data-fill-palette-color="accent"></rect><rect width="162.90200068346616" height="1.8867668682185041" y="46.948811676510935" x="232.61799931653383" fill="#ff683c" data-fill-palette-color="accent"></rect><rect width="162.90200068346616" height="1.8867668682185041" y="46.948811676510935" x="0" fill="#ff683c" data-fill-palette-color="accent"></rect></g></svg></g><defs></defs></svg><rect width="395.52" height="97.33925658845983" fill="none" stroke="none" visibility="hidden"></rect></g></svg></g></svg>